<svg id="Layer_1" data-name="Layer 1" xmlns="http://www.w3.org/2000/svg" viewBox="0 0 283.39 369.62"><defs><style>.cls-1{fill:#1d2e5c;}.cls-2{fill:#231f20;}</style></defs><path class="cls-1" d="M324.74,320.33A32.6,32.6,0,0,0,311.1,323a27.6,27.6,0,0,0-9.37,6.74,27.89,27.89,0,0,0-5.42,9.21,37.8,37.8,0,0,0-2.14,10.35l56.21-9.2q-1-6.57-7.23-13.15T324.74,320.33Z" transform="translate(-181.08 -222.86)"/><path class="cls-1" d="M376.1,495.85a141.79,141.79,0,0,0,44.07-28.41C411.1,475.05,395.34,484.93,376.1,495.85Z" transform="translate(-181.08 -222.86)"/><path class="cls-1" d="M322.76,222.86a141.7,141.7,0,0,0-80.21,258.5L181.08,592.47s122.35-55.45,195-96.62c19.24-10.92,35-20.8,44.07-28.41q3.56-3.36,6.88-7a141.67,141.67,0,0,0-104.29-237.6ZM249.64,324.77a73.66,73.66,0,0,1,18.56-25.64,74.67,74.67,0,0,1,26.29-14.8,99,99,0,0,1,30.25-4.74,91.61,91.61,0,0,1,31.72,5.23,76.43,76.43,0,0,1,24.65,14.47,65,65,0,0,1,16.13,22A67.5,67.5,0,0,1,403,349.27c0,7.45-2.08,13.13-6.23,17.09s-10,6.46-17.43,7.56l-81.2,12.17q3.63,10.83,14.8,16.26t25.64,5.42A92.39,92.39,0,0,0,364,404.33a82.18,82.18,0,0,0,19.54-8.05,27.89,27.89,0,0,1,8.89,9.19A23.64,23.64,0,0,1,396.06,418q0,14.81-13.78,22a73.21,73.21,0,0,1-23.69,7.58,168.13,168.13,0,0,1-24.65,1.95,114.93,114.93,0,0,1-36-5.42A81.65,81.65,0,0,1,269,427.83a75,75,0,0,1-19.39-27.28q-7.08-16.46-7.09-38.46Q242.55,340.39,249.64,324.77Z" transform="translate(-181.08 -222.86)"/><path class="cls-2" d="M350.29,286.23a15.46,15.46,0,0,1-2.64,2.68C348.56,288.05,349.44,287.16,350.29,286.23Z" transform="translate(-181.08 -222.86)"/></svg>