<svg id="Layer_1" data-name="Layer 1" xmlns="http://www.w3.org/2000/svg" viewBox="0 0 2889.49 882.31"><defs><style>.cls-1{fill:#082a5e;}.cls-2{fill:#ff4667;}</style></defs><path class="cls-1" d="M1263.6,1252.05q-33.4-11.38-60.7-23.14t-47.05-28.46a117.68,117.68,0,0,1-30.73-39.84q-11-23.13-11-56.53,0-64.49,49.7-103.2t139.24-38.69a379.34,379.34,0,0,1,60.7,4.55q28.07,4.54,48.19,14t31.49,24.28q11.38,14.79,11.38,34.52t-9.11,33.77a94.48,94.48,0,0,1-22,23.9q-16.7-10.62-44.77-18.59t-61.46-8q-34.15,0-50.09,9.49t-15.93,23.9q0,11.39,9.86,18.59t29.6,13.28l40.21,12.9q71.32,22.77,109.65,58.05t38.32,96q0,64.5-50.84,104.34t-149.48,39.83a347.44,347.44,0,0,1-64.88-5.69q-30-5.68-52.36-16.69t-34.9-27.32a60,60,0,0,1-12.52-37.56q0-22,12.9-37.56t28.07-23.9q21.24,16.7,52,28.83t67.15,12.14q37.17,0,52.36-11.38t15.18-26.56q0-15.16-12.14-23.14t-34.15-15.56Z" transform="translate(-283.26 -854.85)"/><path class="cls-1" d="M1708.26,1054.76q45.54,0,84.61,11.76t67.16,36q28,24.3,44,61.09t15.93,87.64q0,48.57-13.66,85t-38.7,61.08q-25,24.67-60.32,36.8t-78.54,12.14q-32.62,0-60.7-9.86v126q-7.59,2.28-24.28,4.93a217.28,217.28,0,0,1-34.15,2.66,178.05,178.05,0,0,1-30-2.28q-13.29-2.26-22.39-9.1A41.26,41.26,0,0,1,1543.6,1540q-4.55-11.77-4.55-30.73V1145.06q0-20.49,8.73-33.39t23.9-23.52q23.5-15.18,58.43-24.28T1708.26,1054.76Zm1.52,289.86q78.15,0,78.16-93.33,0-48.55-19.35-72.09t-55.77-23.52a89.61,89.61,0,0,0-25.8,3.42,103,103,0,0,0-19.73,8V1334a113.2,113.2,0,0,0,19.73,7.59A82.21,82.21,0,0,0,1709.78,1344.62Z" transform="translate(-283.26 -854.85)"/><path class="cls-1" d="M2178,1447.06q-44.79,0-83.09-12.52T2028.09,1397q-28.46-25-44.76-63T1967,1245.22q0-50.09,16.32-86.12t42.87-59.19a171.42,171.42,0,0,1,60.7-34.15,226.72,226.72,0,0,1,69.81-11q40.22,0,73.23,12.14t56.91,33.39a148.79,148.79,0,0,1,37.18,50.84q13.26,29.59,13.28,64.5,0,25.8-14.42,39.45t-40.22,17.46l-187.42,28.07q8.34,25,34.14,37.56t59.19,12.52a211.87,211.87,0,0,0,58.81-8q27.69-8,45.15-18.59a63.87,63.87,0,0,1,20.49,21.24,54.48,54.48,0,0,1,8.34,28.84q0,34.14-31.87,50.84-24.28,12.92-54.63,17.45A384.22,384.22,0,0,1,2178,1447.06Zm-21.25-298.21q-18.21,0-31.49,6.07a63.58,63.58,0,0,0-21.62,15.56,64.27,64.27,0,0,0-12.52,21.24,87.15,87.15,0,0,0-4.94,23.91l129.76-21.25q-2.28-15.17-16.7-30.35T2156.71,1148.85Z" transform="translate(-283.26 -854.85)"/><path class="cls-1" d="M2551.29,1054.76q41,0,74.74,8.35t57.67,25.42a114.65,114.65,0,0,1,36.8,43.25q12.9,26.17,12.9,61.84v170q0,19.74-11,32.25a109.59,109.59,0,0,1-26.18,21.63q-49.33,29.6-138.86,29.59-40.23,0-72.47-7.59t-55.39-22.76a104.3,104.3,0,0,1-35.66-38.7q-12.53-23.51-12.52-54.63,0-52.37,31.11-80.44t96.37-34.9l99.4-10.63v-5.31q0-22-19.35-31.49t-55.77-9.48a258.43,258.43,0,0,0-56.15,6.07,298.88,298.88,0,0,0-49.33,15.17q-9.87-6.82-16.69-20.86a66,66,0,0,1-6.83-29.22q0-19.72,9.49-31.49t29.21-20.11q22-8.34,52-12.14A452.88,452.88,0,0,1,2551.29,1054.76Zm6.07,298.21a170.35,170.35,0,0,0,28.46-2.65q15.54-2.65,23.14-7.21V1282.4l-54.64,4.55q-21.24,1.53-34.9,9.11t-13.66,22.76a30.17,30.17,0,0,0,11.76,24.67Q2529.28,1353,2557.36,1353Z" transform="translate(-283.26 -854.85)"/><path class="cls-1" d="M3172.74,1368.15q-3.79,35.67-20.86,54.63t-49.7,19q-24.3,0-43.26-11.76t-41-39.84l-75.12-94.09v138.1q-8.37,1.52-24.66,4.18a206.54,206.54,0,0,1-33,2.65,179.3,179.3,0,0,1-30-2.27q-13.28-2.28-22.38-9.11a43.75,43.75,0,0,1-14-18.59q-5-11.76-4.93-30.73V940.94q8.34-2.28,24.66-4.93a205.12,205.12,0,0,1,33-2.66,178.31,178.31,0,0,1,30,2.28q13.28,2.26,22.39,9.1a43.91,43.91,0,0,1,14,18.59q4.93,11.77,4.94,30.74v200.32l130.51-133.55q39.45,0,63.36,17.45t23.9,44a55.68,55.68,0,0,1-3.79,20.87,76.41,76.41,0,0,1-11.76,19.35,173,173,0,0,1-20.49,20.87q-12.53,11-29.21,25.42l-44,37.94Z" transform="translate(-283.26 -854.85)"/><path class="cls-2" d="M687.78,1110.13q-17.55,0-30.36,5.85a61.23,61.23,0,0,0-20.85,15,62.36,62.36,0,0,0-12.07,20.48,84.28,84.28,0,0,0-4.75,23L744.84,1154q-2.19-14.61-16.09-29.26T687.78,1110.13Z" transform="translate(-283.26 -854.85)"/><path class="cls-2" d="M683.39,854.85c-195.34,0-353.68,158.34-353.68,353.67,0,114.67,54.55,216.58,139.13,281.2L283.26,1737.15l472.83-182.42c160.46-33.54,281-175.79,281-346.21C1037.08,1013.19,878.72,854.85,683.39,854.85ZM848,1212.54q-13.89,13.17-38.76,16.84l-180.68,27.06q8,24.15,32.91,36.21t57.06,12.07a205,205,0,0,0,56.7-7.67q26.67-7.68,43.52-17.92a61.49,61.49,0,0,1,19.75,20.47,52.48,52.48,0,0,1,8,27.81q0,32.91-30.74,49-23.4,12.46-52.66,16.82a370.59,370.59,0,0,1-54.87,4.4q-43.17,0-80.11-12.08t-64.37-36.2q-27.43-24.15-43.16-60.72T504.89,1203q0-48.29,15.73-83T562,1063A165.29,165.29,0,0,1,620.48,1030a218.12,218.12,0,0,1,67.31-10.61q38.76,0,70.58,11.71t54.87,32.19a143.27,143.27,0,0,1,35.84,49q12.81,28.54,12.8,62.19Q861.88,1199.4,848,1212.54Z" transform="translate(-283.26 -854.85)"/></svg>